PathFileType	4	(X/Y/Z)	C:\Users\WrightLab\Desktop\Jo\P1_boxCal29.trc
DataRate	CameraRate	NumFrames	NumMarkers	Units	OrigDataRate	OrigDataStartFrame	OrigNumFrames
100.00	100.00	      6	19	mm	100.00	865	      1153
Frame#	Time	Headset_Front			Headset_Back			Headset_Left			Headset_Right			Left_Shoulder			Right_Shoulder			Sternum			C7			Left Elbow			Right Elbow			Left Wrist			Right Wrist			Left ASIS			Right ASIS			S2			Left Knee			Right Knee			Left Ankle			Right Ankle			
		X1	Y1	Z1	X2	Y2	Z2	X3	Y3	Z3	X4	Y4	Z4	X5	Y5	Z5	X6	Y6	Z6	X7	Y7	Z7	X8	Y8	Z8	X9	Y9	Z9	X10	Y10	Z10	X11	Y11	Z11	X12	Y12	Z12	X13	Y13	Z13	X14	Y14	Z14	X15	Y15	Z15	X16	Y16	Z16	X17	Y17	Z17	X18	Y18	Z18	X19	Y19	Z19	

865	8.640	-583.49200	1354.20862	-448.09055	-752.14398	1492.38391	-391.53418	-789.51440	1396.93213	-527.31793	-619.20081	1288.12659	-578.45770	-937.89594	1261.47119	-467.16302	-610.17609	1227.06030	-279.86215	-707.67627	1128.20837	-473.25616	-835.33325	1269.31934	-282.44321	-1061.78809	962.91321	-482.47806	-604.26630	979.41681	-146.80080	-947.12695	804.39636	-624.10504	-498.42209	751.83545	-164.00177	-794.40857	852.22321	-541.81409	-641.15930	841.31689	-409.10822	-918.08081	882.43579	-233.95352	-943.82275	428.14917	-478.90219	-597.08923	450.39349	-211.52528	-956.44360	63.96262	-382.98093				
866	8.650	-587.85223	1354.67432	-456.62616	-756.34436	1493.02136	-397.45297	-794.81409	1398.00671	-532.71851	-625.17029	1288.86462	-586.73218	-942.08307	1262.09143	-470.54703	-612.15533	1227.74792	-288.93597	-711.09851	1129.10010	-478.45322	-837.05811	1270.08728	-287.97415	-1067.68066	964.02228	-483.66943	-605.28198	979.58301	-155.34288	-957.50110	804.56189	-627.54437	-499.88626	751.77979	-172.23643	-800.09808	852.84900	-547.97455	-644.86340	842.39032	-418.01096	-918.77838	882.47375	-237.85167	-946.38080	427.36234	-479.36264	-594.31403	450.61398	-225.59673	-956.60852	63.78254	-383.22430				
867	8.660	-592.10431	1355.62476	-464.81876	-759.48621	1493.74597	-403.15042	-799.96710	1399.24487	-538.55811	-631.33685	1291.37183	-595.78503	-947.23120	1262.64502	-474.88351	-613.62384	1228.92444	-297.67355	-715.52350	1129.94421	-485.81473	-839.52710	1270.62817	-293.51425	-1073.91016	965.82471	-485.28726	-604.91125	980.61292	-165.05061	-967.75641	804.93774	-630.68817	-502.24875	752.05182	-180.60159	-805.42438	853.79688	-553.75488	-648.48663	843.02246	-426.02167	-919.39673	882.72876	-241.87099	-949.60547	427.37085	-480.88745	-591.83051	449.59686	-241.57628	-956.86633	63.49283	-383.17441				
868	8.670	-596.32037	1357.02515	-472.63416	-763.10199	1493.41235	-409.31915	-804.85663	1400.43372	-543.83911	-636.53717	1293.07617	-605.95374	-951.15295	1263.06580	-478.29666	-615.51971	1229.90967	-305.11819	-720.14026	1131.05603	-495.16400	-841.78101	1271.30542	-299.49814	-1079.16577	966.77197	-485.95020	-604.61920	981.23047	-174.62645	-977.79248	805.06488	-633.53418	-503.72537	753.06128	-189.96573	-810.62317	855.31482	-559.90643	-651.48578	844.73877	-434.64920	-920.19562	883.33429	-246.54881	-952.04071	427.11099	-482.05753	-588.65302	450.26450	-256.52673	-957.18188	63.15698	-383.12201				
869	8.680	-599.23798	1358.20996	-481.05118	-766.61017	1494.39404	-415.49570	-809.37378	1401.87073	-550.35925	-642.42603	1293.96643	-612.76239	-955.04706	1264.18433	-483.48767	-617.76874	1231.73291	-313.86832	-724.27441	1132.56079	-502.06937	-844.39349	1272.18115	-305.34085	-1083.19604	966.93420	-486.33630	-605.25250	982.38306	-183.38371	-987.38940	804.98322	-635.83356	-505.97110	753.69775	-198.55823	-815.46759	855.71082	-563.94006	-654.32861	846.03070	-441.96481	-920.10645	883.52002	-250.65857	-955.06903	426.66745	-483.01031	-587.70160	449.97443	-272.16055	-957.52020	62.85514	-383.11307				
870	8.690	-604.02063	1358.11340	-489.12424	-769.10706	1495.94238	-420.50284	-813.77710	1403.20081	-555.89465	-647.46283	1295.49426	-620.29401	-959.34515	1264.62939	-487.72882	-619.85254	1232.22937	-321.16962	-727.26636	1132.87097	-506.52304	-846.24207	1272.48047	-310.72449	-1088.29541	968.64624	-487.68799	-606.12091	983.55847	-191.05644	-996.66174	805.06256	-639.00708	-507.97028	754.18213	-206.94672	-819.73218	857.05457	-569.75311	-657.20557	846.63806	-449.53824	-920.19922	884.56891	-254.74377	-957.19989	426.16330	-483.21539	-587.10626	449.52234	-287.10202	-957.84601	62.48738	-383.01785				
